<svg xmlns="http://www.w3.org/2000/svg" xmlns:xlink="http://www.w3.org/1999/xlink" width="500" zoomAndPan="magnify" viewBox="0 0 375 374.999991" height="500" preserveAspectRatio="xMidYMid meet" version="1.0"><defs><g/><clipPath id="5f18e1f67b"><path d="M 82.589844 0 L 306.886719 0 L 306.886719 224.296875 L 82.589844 224.296875 Z M 82.589844 0 " clip-rule="nonzero"/></clipPath><clipPath id="1aa64a22f2"><path d="M 77.269531 1.609375 L 194.738281 1.609375 L 194.738281 222.277344 L 77.269531 222.277344 Z M 77.269531 1.609375 " clip-rule="nonzero"/></clipPath><clipPath id="acd36f85a8"><path d="M 68 13.457031 L 292.296875 13.457031 L 292.296875 210.839844 L 68 210.839844 Z M 68 13.457031 " clip-rule="nonzero"/></clipPath></defs><g clip-path="url(#5f18e1f67b)"><path fill="#000000" d="M 194.738281 224.296875 C 132.917969 224.296875 82.589844 173.96875 82.589844 112.148438 C 82.589844 50.328125 132.917969 0 194.738281 0 C 256.558594 0 306.886719 50.328125 306.886719 112.148438 C 306.886719 173.96875 256.558594 224.296875 194.738281 224.296875 Z M 194.738281 1.65625 C 133.800781 1.65625 84.246094 51.210938 84.246094 112.148438 C 84.246094 173.085938 133.800781 222.640625 194.738281 222.640625 C 255.675781 222.640625 305.230469 173.085938 305.230469 112.148438 C 305.230469 51.210938 255.675781 1.65625 194.738281 1.65625 Z M 194.738281 1.65625 " fill-opacity="1" fill-rule="nonzero"/></g><g clip-path="url(#1aa64a22f2)"><path fill="#ffffff" d="M 77.269531 1.609375 L 194.738281 1.609375 L 194.738281 222.277344 L 77.269531 222.277344 Z M 77.269531 1.609375 " fill-opacity="1" fill-rule="nonzero"/></g><g clip-path="url(#acd36f85a8)"><path fill="#00c1e8" d="M 156.621094 13.457031 L 193.476562 13.457031 C 220.625 13.457031 245.3125 24.5625 263.183594 42.4375 L 263.152344 42.46875 C 281.054688 60.378906 292.164062 85.054688 292.164062 112.144531 L 292.164062 112.15625 C 292.164062 139.300781 281.0625 163.988281 263.183594 181.863281 C 245.3125 199.738281 220.625 210.839844 193.476562 210.839844 L 138.605469 210.839844 C 132.242188 210.839844 127.039062 205.636719 127.039062 199.273438 C 127.039062 192.914062 132.242188 187.710938 138.605469 187.710938 L 180.878906 187.710938 C 183.910156 191.585938 188.628906 194.066406 193.929688 194.066406 C 203.082031 194.066406 210.507812 186.652344 210.507812 177.496094 C 210.507812 168.34375 203.082031 160.921875 193.929688 160.921875 C 188.628906 160.921875 183.914062 163.410156 180.878906 167.277344 L 79.714844 167.277344 C 73.351562 167.277344 68.152344 162.074219 68.152344 155.710938 C 68.152344 149.351562 73.351562 144.148438 79.714844 144.148438 L 236.03125 144.148438 C 239.0625 148.019531 243.785156 150.507812 249.082031 150.507812 C 258.238281 150.507812 265.660156 143.089844 265.660156 133.933594 C 265.660156 124.78125 258.238281 117.359375 249.082031 117.359375 C 243.785156 117.359375 239.070312 119.847656 236.035156 123.710938 L 109.273438 123.710938 C 102.914062 123.710938 97.707031 118.511719 97.707031 112.144531 C 97.707031 105.789062 102.914062 100.585938 109.273438 100.585938 L 236.03125 100.585938 C 239.0625 104.460938 243.785156 106.941406 249.082031 106.941406 C 258.238281 106.941406 265.660156 99.523438 265.660156 90.371094 C 265.660156 81.214844 258.238281 73.796875 249.082031 73.796875 C 243.785156 73.796875 239.070312 76.285156 236.035156 80.152344 L 79.714844 80.152344 C 73.351562 80.152344 68.152344 74.949219 68.152344 68.582031 C 68.152344 62.226562 73.351562 57.023438 79.714844 57.023438 L 184.566406 57.023438 C 187.601562 60.890625 192.316406 63.378906 197.617188 63.378906 C 206.769531 63.378906 214.191406 55.957031 214.191406 46.804688 C 214.191406 37.648438 206.769531 30.230469 197.617188 30.230469 C 192.316406 30.230469 187.597656 32.714844 184.5625 36.585938 L 138.605469 36.585938 C 132.242188 36.585938 127.039062 31.386719 127.039062 25.019531 C 127.039062 18.660156 132.242188 13.457031 138.605469 13.457031 Z M 193.929688 169.9375 C 189.757812 169.9375 186.375 173.324219 186.375 177.496094 C 186.375 181.671875 189.757812 185.054688 193.929688 185.054688 C 198.105469 185.054688 201.492188 181.667969 201.492188 177.496094 C 201.492188 173.324219 198.105469 169.9375 193.929688 169.9375 Z M 249.082031 126.375 C 244.914062 126.375 241.527344 129.761719 241.527344 133.933594 C 241.527344 138.105469 244.914062 141.488281 249.082031 141.488281 C 253.257812 141.488281 256.644531 138.105469 256.644531 133.933594 C 256.640625 129.761719 253.257812 126.375 249.082031 126.375 Z M 249.082031 82.8125 C 244.914062 82.8125 241.527344 86.199219 241.527344 90.371094 C 241.527344 94.546875 244.914062 97.929688 249.082031 97.929688 C 253.257812 97.929688 256.644531 94.542969 256.644531 90.371094 C 256.640625 86.199219 253.257812 82.8125 249.082031 82.8125 Z M 197.617188 39.242188 C 193.445312 39.242188 190.0625 42.628906 190.0625 46.804688 C 190.0625 50.976562 193.445312 54.363281 197.617188 54.363281 C 201.792969 54.363281 205.175781 50.976562 205.175781 46.804688 C 205.175781 42.628906 201.792969 39.242188 197.617188 39.242188 Z M 197.617188 39.242188 " fill-opacity="1" fill-rule="evenodd"/></g><g fill="#000000" fill-opacity="1"><g transform="translate(90.662375, 254.725479)"><g><path d="M 1.933594 0 L 14.644531 0 L 14.644531 -4.386719 L 6.773438 -4.386719 L 6.773438 -21.933594 L 1.933594 -21.933594 Z M 1.933594 0 "/></g></g></g><g fill="#000000" fill-opacity="1"><g transform="translate(112.884395, 254.725479)"><g><path d="M 14.644531 -4.386719 L 6.773438 -4.386719 L 6.773438 -8.804688 L 14.320312 -8.804688 L 14.320312 -13.191406 L 6.773438 -13.191406 L 6.773438 -17.546875 L 14.644531 -17.546875 L 14.644531 -21.933594 L 1.933594 -21.933594 L 1.933594 0 L 14.644531 0 Z M 14.644531 -4.386719 "/></g></g></g><g fill="#000000" fill-opacity="1"><g transform="translate(135.912675, 254.725479)"><g><path d="M 13.867188 -8.386719 L 8.320312 -8.386719 L 11.09375 -16.191406 Z M 22.0625 0 L 13.160156 -21.933594 L 9.0625 -21.933594 L 0.160156 0 L 5.355469 0 L 6.933594 -4.417969 L 15.289062 -4.417969 L 16.867188 0 Z M 22.0625 0 "/></g></g></g><g fill="#000000" fill-opacity="1"><g transform="translate(164.58477, 254.725479)"><g><path d="M 6.773438 -7.835938 L 6.804688 -7.835938 L 12.03125 0 L 18.160156 0 L 11.871094 -8.0625 C 14.644531 -8.742188 16.867188 -11.191406 16.867188 -14.902344 C 16.867188 -19.0625 13.707031 -21.933594 10.160156 -21.933594 L 1.933594 -21.933594 L 1.933594 0 L 6.773438 0 Z M 9.355469 -18.125 C 10.773438 -18.125 12.257812 -16.902344 12.257812 -14.902344 C 12.257812 -12.804688 10.773438 -11.644531 9.355469 -11.644531 L 6.773438 -11.644531 L 6.773438 -18.125 Z M 9.355469 -18.125 "/></g></g></g><g fill="#000000" fill-opacity="1"><g transform="translate(188.806317, 254.725479)"><g><path d="M 19.160156 0 L 19.160156 -21.933594 L 14.320312 -21.933594 L 14.320312 -8.257812 L 6.773438 -21.933594 L 1.933594 -21.933594 L 1.933594 0 L 6.773438 0 L 6.773438 -13.675781 L 14.320312 0 Z M 19.160156 0 "/></g></g></g><g fill="#000000" fill-opacity="1"><g transform="translate(216.349662, 254.725479)"><g><path d="M 6.773438 0 L 6.773438 -21.933594 L 1.933594 -21.933594 L 1.933594 0 Z M 6.773438 0 "/></g></g></g><g fill="#000000" fill-opacity="1"><g transform="translate(231.508834, 254.725479)"><g><path d="M 19.160156 0 L 19.160156 -21.933594 L 14.320312 -21.933594 L 14.320312 -8.257812 L 6.773438 -21.933594 L 1.933594 -21.933594 L 1.933594 0 L 6.773438 0 L 6.773438 -13.675781 L 14.320312 0 Z M 19.160156 0 "/></g></g></g><g fill="#000000" fill-opacity="1"><g transform="translate(259.052179, 254.725479)"><g><path d="M 12.902344 -17.738281 C 15.03125 -17.738281 17.222656 -16.867188 18.289062 -14.546875 L 23.609375 -14.546875 C 22.09375 -19.09375 17.738281 -22.253906 12.902344 -22.253906 C 6.707031 -22.253906 1.613281 -17.160156 1.613281 -10.964844 C 1.613281 -4.773438 6.707031 0.324219 12.902344 0.324219 C 19.160156 0.324219 24.15625 -4.742188 24.15625 -10.964844 L 24.15625 -11.707031 L 13.351562 -11.707031 L 13.351562 -8.0625 L 18.933594 -8.0625 C 17.738281 -4.742188 15.03125 -4.0625 12.902344 -4.0625 C 9.417969 -4.0625 6.515625 -7.191406 6.515625 -10.902344 C 6.515625 -14.609375 9.417969 -17.738281 12.902344 -17.738281 Z M 12.902344 -17.738281 "/></g></g></g><g fill="#000000" fill-opacity="1"><g transform="translate(99.838284, 293.267469)"><g><path d="M 3.742188 -4.320312 C 2.320312 -4.320312 1.324219 -4.839844 0.742188 -5.933594 L 0.644531 -5.933594 L 0.644531 -0.03125 C 1.582031 0.195312 2.613281 0.324219 3.742188 0.324219 C 9 0.324219 12.160156 -1.96875 12.160156 -8.226562 L 12.160156 -21.933594 L 7.320312 -21.933594 L 7.320312 -8.613281 C 7.320312 -6.320312 7.191406 -4.320312 3.742188 -4.320312 Z M 3.742188 -4.320312 "/></g></g></g><g fill="#000000" fill-opacity="1"><g transform="translate(120.060767, 293.267469)"><g><path d="M 18.867188 -11 C 18.867188 -7.613281 15.804688 -4.515625 12.417969 -4.515625 C 9.03125 -4.515625 5.96875 -7.613281 5.96875 -11 C 5.96875 -14.386719 9.03125 -17.449219 12.417969 -17.449219 C 15.804688 -17.449219 18.867188 -14.386719 18.867188 -11 Z M 23.707031 -10.964844 C 23.707031 -17.03125 18.480469 -22.253906 12.417969 -22.253906 C 6.355469 -22.253906 1.128906 -17.03125 1.128906 -10.964844 C 1.128906 -4.902344 6.355469 0.324219 12.417969 0.324219 C 18.480469 0.324219 23.707031 -4.902344 23.707031 -10.964844 Z M 23.707031 -10.964844 "/></g></g></g><g fill="#000000" fill-opacity="1"><g transform="translate(151.345161, 293.267469)"><g><path d="M 14.738281 -21.933594 L 14.738281 -9.257812 C 14.738281 -6.226562 13.835938 -4.515625 10.515625 -4.515625 C 7.226562 -4.515625 6.289062 -6.226562 6.289062 -9.257812 L 6.289062 -21.933594 L 1.453125 -21.933594 L 1.453125 -8.546875 C 1.453125 -2.710938 4.804688 0.324219 10.515625 0.324219 C 16.222656 0.324219 19.578125 -2.710938 19.578125 -8.546875 L 19.578125 -21.933594 Z M 14.738281 -21.933594 "/></g></g></g><g fill="#000000" fill-opacity="1"><g transform="translate(178.823993, 293.267469)"><g><path d="M 6.773438 -7.835938 L 6.804688 -7.835938 L 12.03125 0 L 18.160156 0 L 11.871094 -8.0625 C 14.644531 -8.742188 16.867188 -11.191406 16.867188 -14.902344 C 16.867188 -19.0625 13.707031 -21.933594 10.160156 -21.933594 L 1.933594 -21.933594 L 1.933594 0 L 6.773438 0 Z M 9.355469 -18.125 C 10.773438 -18.125 12.257812 -16.902344 12.257812 -14.902344 C 12.257812 -12.804688 10.773438 -11.644531 9.355469 -11.644531 L 6.773438 -11.644531 L 6.773438 -18.125 Z M 9.355469 -18.125 "/></g></g></g><g fill="#000000" fill-opacity="1"><g transform="translate(203.04554, 293.267469)"><g><path d="M 19.160156 0 L 19.160156 -21.933594 L 14.320312 -21.933594 L 14.320312 -8.257812 L 6.773438 -21.933594 L 1.933594 -21.933594 L 1.933594 0 L 6.773438 0 L 6.773438 -13.675781 L 14.320312 0 Z M 19.160156 0 "/></g></g></g><g fill="#000000" fill-opacity="1"><g transform="translate(230.588885, 293.267469)"><g><path d="M 14.644531 -4.386719 L 6.773438 -4.386719 L 6.773438 -8.804688 L 14.320312 -8.804688 L 14.320312 -13.191406 L 6.773438 -13.191406 L 6.773438 -17.546875 L 14.644531 -17.546875 L 14.644531 -21.933594 L 1.933594 -21.933594 L 1.933594 0 L 14.644531 0 Z M 14.644531 -4.386719 "/></g></g></g><g fill="#000000" fill-opacity="1"><g transform="translate(253.617169, 293.267469)"><g><path d="M 8.355469 0 L 13.191406 0 L 13.191406 -10.480469 L 21.289062 -21.933594 L 15.515625 -21.933594 L 10.773438 -14.351562 L 6.03125 -21.933594 L 0.257812 -21.933594 L 8.355469 -10.480469 Z M 8.355469 0 "/></g></g></g><g fill="#000000" fill-opacity="1"><g transform="translate(113.94898, 326.638943)"><g><path d="M 7.664062 -4.320312 C 7.664062 -4.945312 7.539062 -5.515625 7.308594 -6.050781 C 7.082031 -6.585938 6.761719 -7.042969 6.367188 -7.425781 C 5.960938 -7.804688 5.492188 -8.097656 4.957031 -8.3125 C 4.410156 -8.53125 3.828125 -8.644531 3.214844 -8.644531 L 0.953125 -8.644531 L 0.953125 0 L 3.214844 0 C 3.828125 0 4.410156 -0.101562 4.957031 -0.316406 C 5.492188 -0.535156 5.960938 -0.839844 6.367188 -1.21875 C 6.761719 -1.601562 7.082031 -2.046875 7.308594 -2.582031 C 7.539062 -3.113281 7.664062 -3.6875 7.664062 -4.320312 Z M 6.800781 -4.320312 C 6.800781 -3.332031 6.445312 -2.503906 5.757812 -1.855469 C 5.070312 -1.207031 4.234375 -0.890625 3.242188 -0.890625 L 1.84375 -0.890625 L 1.84375 -7.753906 L 3.242188 -7.753906 C 4.234375 -7.753906 5.070312 -7.425781 5.757812 -6.789062 C 6.445312 -6.128906 6.800781 -5.300781 6.800781 -4.320312 Z M 6.800781 -4.320312 "/></g></g></g><g fill="#000000" fill-opacity="1"><g transform="translate(124.728377, 326.638943)"><g><path d="M 6.089844 0 L 6.089844 -0.828125 L 1.84375 -0.828125 L 1.84375 -3.902344 L 5.960938 -3.902344 L 5.960938 -4.742188 L 1.84375 -4.742188 L 1.84375 -7.816406 L 6.089844 -7.816406 L 6.089844 -8.644531 L 0.953125 -8.644531 L 0.953125 0 Z M 6.089844 0 "/></g></g></g><g fill="#000000" fill-opacity="1"><g transform="translate(134.312948, 326.638943)"><g><path d="M 6.597656 -2.402344 C 6.597656 -3.011719 6.445312 -3.535156 6.152344 -3.941406 C 5.847656 -4.347656 5.441406 -4.628906 4.945312 -4.765625 C 5.238281 -4.894531 5.492188 -5.121094 5.683594 -5.464844 C 5.769531 -5.617188 5.835938 -5.769531 5.886719 -5.9375 C 5.9375 -6.101562 5.960938 -6.332031 5.960938 -6.621094 C 5.960938 -6.902344 5.886719 -7.195312 5.757812 -7.476562 C 5.378906 -8.25 4.550781 -8.644531 3.292969 -8.644531 L 0.953125 -8.644531 L 0.953125 0 L 3.597656 0 C 4.476562 0 5.171875 -0.191406 5.707031 -0.597656 C 5.976562 -0.800781 6.191406 -1.066406 6.355469 -1.398438 C 6.507812 -1.714844 6.597656 -2.046875 6.597656 -2.402344 Z M 5.070312 -6.484375 C 5.070312 -6.011719 4.933594 -5.667969 4.652344 -5.441406 C 4.371094 -5.210938 4.003906 -5.097656 3.546875 -5.097656 L 1.84375 -5.097656 L 1.84375 -7.792969 L 3.292969 -7.792969 C 4.476562 -7.792969 5.070312 -7.347656 5.070312 -6.484375 Z M 5.707031 -2.582031 C 5.707031 -2.058594 5.53125 -1.640625 5.171875 -1.320312 C 4.832031 -1.003906 4.386719 -0.851562 3.851562 -0.851562 L 1.84375 -0.851562 L 1.84375 -4.207031 L 3.992188 -4.207031 C 4.4375 -4.207031 4.832031 -4.054688 5.171875 -3.75 C 5.328125 -3.609375 5.453125 -3.445312 5.554688 -3.253906 C 5.65625 -3.050781 5.707031 -2.835938 5.707031 -2.582031 Z M 5.707031 -2.582031 "/></g></g></g><g fill="#000000" fill-opacity="1"><g transform="translate(143.706859, 326.638943)"><g><path d="M 2.351562 -3.179688 L 3.929688 -7.15625 L 5.492188 -3.179688 Z M 7.714844 0 L 3.929688 -9.242188 L 0.128906 0 L 1.09375 0 L 2.019531 -2.351562 L 5.820312 -2.351562 L 6.75 0 Z M 7.714844 0 "/></g></g></g><g fill="#000000" fill-opacity="1"><g transform="translate(154.092221, 326.638943)"><g><path d="M 4.296875 -4.066406 L 7.5625 -8.644531 L 6.433594 -8.644531 L 3.851562 -4.945312 L 1.269531 -8.644531 L 0.128906 -8.644531 L 3.40625 -4.054688 L 3.40625 0 L 4.296875 0 Z M 4.296875 -4.066406 "/></g></g></g><g fill="#000000" fill-opacity="1"><g transform="translate(164.325048, 326.638943)"><g><path d="M 2.351562 -3.179688 L 3.929688 -7.15625 L 5.492188 -3.179688 Z M 7.714844 0 L 3.929688 -9.242188 L 0.128906 0 L 1.09375 0 L 2.019531 -2.351562 L 5.820312 -2.351562 L 6.75 0 Z M 7.714844 0 "/></g></g></g><g fill="#000000" fill-opacity="1"><g transform="translate(174.71041, 326.638943)"><g><path d="M 1.84375 -6.367188 L 6.699219 0.535156 L 6.699219 -8.644531 L 5.808594 -8.644531 L 5.808594 -2.289062 L 0.953125 -9.191406 L 0.953125 0 L 1.84375 0 Z M 1.84375 -6.367188 "/></g></g></g><g fill="#000000" fill-opacity="1"><g transform="translate(184.905108, 326.638943)"><g/></g></g><g fill="#000000" fill-opacity="1"><g transform="translate(190.879795, 326.638943)"><g><path d="M 1.84375 -4.285156 L 1.84375 -7.792969 L 3.851562 -7.792969 C 4.371094 -7.792969 4.792969 -7.628906 5.109375 -7.308594 C 5.414062 -6.980469 5.582031 -6.570312 5.582031 -6.0625 C 5.582031 -5.542969 5.414062 -5.121094 5.085938 -4.78125 C 4.753906 -4.449219 4.347656 -4.285156 3.851562 -4.285156 Z M 6.46875 -6.039062 C 6.46875 -6.800781 6.191406 -7.425781 5.65625 -7.917969 C 5.121094 -8.402344 4.488281 -8.644531 3.726562 -8.644531 L 0.953125 -8.644531 L 0.953125 0 L 1.84375 0 L 1.84375 -3.417969 L 3.726562 -3.417969 C 4.488281 -3.417969 5.136719 -3.660156 5.65625 -4.144531 C 6.191406 -4.652344 6.46875 -5.277344 6.46875 -6.039062 Z M 6.46875 -6.039062 "/></g></g></g><g fill="#000000" fill-opacity="1"><g transform="translate(200.146596, 326.638943)"><g><path d="M 1.84375 -4.269531 L 1.84375 -7.792969 L 3.851562 -7.792969 C 4.371094 -7.792969 4.792969 -7.628906 5.109375 -7.296875 C 5.414062 -6.964844 5.582031 -6.558594 5.582031 -6.050781 C 5.582031 -5.542969 5.414062 -5.121094 5.085938 -4.78125 C 4.753906 -4.4375 4.347656 -4.269531 3.851562 -4.269531 Z M 6.46875 -6.039062 C 6.46875 -6.777344 6.191406 -7.410156 5.65625 -7.90625 C 5.136719 -8.390625 4.488281 -8.644531 3.726562 -8.644531 L 0.953125 -8.644531 L 0.953125 0 L 1.84375 0 L 1.84375 -3.417969 L 2.871094 -3.417969 L 5.414062 0 L 6.609375 0 L 3.941406 -3.417969 C 4.613281 -3.457031 5.1875 -3.699219 5.65625 -4.144531 C 6.191406 -4.640625 6.46875 -5.277344 6.46875 -6.039062 Z M 6.46875 -6.039062 "/></g></g></g><g fill="#000000" fill-opacity="1"><g transform="translate(209.604062, 326.638943)"><g><path d="M 2.351562 -3.179688 L 3.929688 -7.15625 L 5.492188 -3.179688 Z M 7.714844 0 L 3.929688 -9.242188 L 0.128906 0 L 1.09375 0 L 2.019531 -2.351562 L 5.820312 -2.351562 L 6.75 0 Z M 7.714844 0 "/></g></g></g><g fill="#000000" fill-opacity="1"><g transform="translate(219.989419, 326.638943)"><g><path d="M 0.253906 -7.84375 L 2.351562 -7.84375 L 2.351562 -0.0273438 L 3.242188 -0.0273438 L 3.242188 -7.84375 L 5.339844 -7.84375 L 5.339844 -8.667969 L 0.253906 -8.667969 Z M 0.253906 -7.84375 "/></g></g></g><g fill="#000000" fill-opacity="1"><g transform="translate(228.124953, 326.638943)"><g><path d="M 1.84375 0 L 1.84375 -8.644531 L 0.953125 -8.644531 L 0.953125 0 Z M 1.84375 0 "/></g></g></g><g fill="#000000" fill-opacity="1"><g transform="translate(233.464091, 326.638943)"><g><path d="M 1.84375 0 L 1.84375 -3.863281 L 5.769531 -3.863281 L 5.769531 0 L 6.660156 0 L 6.660156 -8.644531 L 5.769531 -8.644531 L 5.769531 -4.753906 L 1.84375 -4.753906 L 1.84375 -8.644531 L 0.953125 -8.644531 L 0.953125 0 Z M 1.84375 0 "/></g></g></g><g fill="#000000" fill-opacity="1"><g transform="translate(243.620647, 326.638943)"><g><path d="M 2.351562 -3.179688 L 3.929688 -7.15625 L 5.492188 -3.179688 Z M 7.714844 0 L 3.929688 -9.242188 L 0.128906 0 L 1.09375 0 L 2.019531 -2.351562 L 5.820312 -2.351562 L 6.75 0 Z M 7.714844 0 "/></g></g></g><g fill="#000000" fill-opacity="1"><g transform="translate(254.006004, 326.638943)"><g><path d="M 1.84375 -4.269531 L 1.84375 -7.792969 L 3.851562 -7.792969 C 4.371094 -7.792969 4.792969 -7.628906 5.109375 -7.296875 C 5.414062 -6.964844 5.582031 -6.558594 5.582031 -6.050781 C 5.582031 -5.542969 5.414062 -5.121094 5.085938 -4.78125 C 4.753906 -4.4375 4.347656 -4.269531 3.851562 -4.269531 Z M 6.46875 -6.039062 C 6.46875 -6.777344 6.191406 -7.410156 5.65625 -7.90625 C 5.136719 -8.390625 4.488281 -8.644531 3.726562 -8.644531 L 0.953125 -8.644531 L 0.953125 0 L 1.84375 0 L 1.84375 -3.417969 L 2.871094 -3.417969 L 5.414062 0 L 6.609375 0 L 3.941406 -3.417969 C 4.613281 -3.457031 5.1875 -3.699219 5.65625 -4.144531 C 6.191406 -4.640625 6.46875 -5.277344 6.46875 -6.039062 Z M 6.46875 -6.039062 "/></g></g></g></svg>